<svg xmlns="http://www.w3.org/2000/svg" xmlns:xlink="http://www.w3.org/1999/xlink" xmlns:inkscape="http://www.inkscape.org/namespaces/inkscape" version="1.1" width="960" height="396.84" viewBox="0 0 960 396.84">
<defs>
<clipPath id="clip_1">
<path transform="matrix(1,0,0,-1,0,396.84)" d="M0 .000091553H960V396.8401H0Z" clip-rule="evenodd"/>
</clipPath>
<clipPath id="clip_2">
<path transform="matrix(1,0,0,-1,0,396.84)" d="M0 .00012207H960V396.84013H0Z" clip-rule="evenodd"/>
</clipPath>
<clipPath id="clip_3">
<path transform="matrix(1,0,0,-1,0,396.84)" d="M0 .00012207H960V396.84013H0Z" clip-rule="evenodd"/>
</clipPath>
<clipPath id="clip_4">
<path transform="matrix(1,0,0,-1,0,396.84)" d="M.000045776 .00021362H960.00009V396.8402H.000045776Z" clip-rule="evenodd"/>
</clipPath>
<clipPath id="clip_5">
<path transform="matrix(1,0,0,-1,0,396.84)" d="M.000014305 0H960V396.84H.000014305Z" clip-rule="evenodd"/>
</clipPath>
<clipPath id="clip_6">
<path transform="matrix(1,0,0,-1,0,396.84)" d="M.000014305 0H960V396.84H.000014305Z" clip-rule="evenodd"/>
</clipPath>
<clipPath id="clip_7">
<path transform="matrix(1,0,0,-1,0,396.84)" d="M.000014305 0H960V396.84H.000014305Z" clip-rule="evenodd"/>
</clipPath>
<clipPath id="clip_8">
<path transform="matrix(1,0,0,-1,0,396.84)" d="M.000014305 0H960V396.84H.000014305Z" clip-rule="evenodd"/>
</clipPath>
<clipPath id="clip_9">
<path transform="matrix(1,0,0,-1,0,396.84)" d="M.000014305 0H960V396.84H.000014305Z" clip-rule="evenodd"/>
</clipPath>
<clipPath id="clip_10">
<path transform="matrix(1,0,0,-1,0,396.84)" d="M.000014305 0H960V396.84H.000014305Z" clip-rule="evenodd"/>
</clipPath>
<clipPath id="clip_11">
<path transform="matrix(1,0,0,-1,0,396.84)" d="M.000014305 0H960V396.84H.000014305Z" clip-rule="evenodd"/>
</clipPath>
<clipPath id="clip_12">
<path transform="matrix(1,0,0,-1,0,396.84)" d="M.000014305 0H960V396.84H.000014305Z" clip-rule="evenodd"/>
</clipPath>
<clipPath id="clip_13">
<path transform="matrix(1,0,0,-1,0,396.84)" d="M.000014305 0H960V396.84H.000014305Z" clip-rule="evenodd"/>
</clipPath>
<clipPath id="clip_14">
<path transform="matrix(1,0,0,-1,0,396.84)" d="M.000014305 0H960V396.84H.000014305Z" clip-rule="evenodd"/>
</clipPath>
<clipPath id="clip_15">
<path transform="matrix(1,0,0,-1,0,396.84)" d="M.000014305 0H960V396.84H.000014305Z" clip-rule="evenodd"/>
</clipPath>
<clipPath id="clip_16">
<path transform="matrix(1,0,0,-1,0,396.84)" d="M-.000015259 .000091553H960V396.8401H-.000015259Z" clip-rule="evenodd"/>
</clipPath>
<clipPath id="clip_17">
<path transform="matrix(1,0,0,-1,0,396.84)" d="M-.000015259 .000091553H960V396.8401H-.000015259Z" clip-rule="evenodd"/>
</clipPath>
<clipPath id="clip_18">
<path transform="matrix(1,0,0,-1,0,396.84)" d="M.000014305 0H960V396.84H.000014305Z" clip-rule="evenodd"/>
</clipPath>
<clipPath id="clip_19">
<path transform="matrix(1,0,0,-1,0,396.84)" d="M.000014305 0H960V396.84H.000014305Z" clip-rule="evenodd"/>
</clipPath>
<clipPath id="clip_20">
<path transform="matrix(1,0,0,-1,0,396.84)" d="M0 .00012207H960V396.84013H0Z" clip-rule="evenodd"/>
</clipPath>
<clipPath id="clip_21">
<path transform="matrix(1,0,0,-1,0,396.84)" d="M0 .00012207H960V396.84013H0Z" clip-rule="evenodd"/>
</clipPath>
<clipPath id="clip_22">
<path transform="matrix(1,0,0,-1,0,396.84)" d="M.000014305 0H960V396.84H.000014305Z" clip-rule="evenodd"/>
</clipPath>
<clipPath id="clip_23">
<path transform="matrix(1,0,0,-1,0,396.84)" d="M.000014305 0H960V396.84H.000014305Z" clip-rule="evenodd"/>
</clipPath>
<clipPath id="clip_24">
<path transform="matrix(1,0,0,-1,0,396.84)" d="M.000015259 .00012207H960V396.84013H.000015259Z" clip-rule="evenodd"/>
</clipPath>
<clipPath id="clip_25">
<path transform="matrix(1,0,0,-1,0,396.84)" d="M.000015259 .00012207H960V396.84013H.000015259Z" clip-rule="evenodd"/>
</clipPath>
<clipPath id="clip_26">
<path transform="matrix(1,0,0,-1,0,396.84)" d="M.000014305 0H960V396.84H.000014305Z" clip-rule="evenodd"/>
</clipPath>
<clipPath id="clip_27">
<path transform="matrix(1,0,0,-1,0,396.84)" d="M0 .000091553H960V396.8401H0Z" clip-rule="evenodd"/>
</clipPath>
<clipPath id="clip_28">
<path transform="matrix(1,0,0,-1,0,396.84)" d="M0 .000091553H960V396.8401H0Z" clip-rule="evenodd"/>
</clipPath>
<clipPath id="clip_29">
<path transform="matrix(1,0,0,-1,0,396.84)" d="M.000014305 0H960V396.84H.000014305Z" clip-rule="evenodd"/>
</clipPath>
<clipPath id="clip_30">
<path transform="matrix(1,0,0,-1,0,396.84)" d="M.000014305 0H960V396.84H.000014305Z" clip-rule="evenodd"/>
</clipPath>
<clipPath id="clip_31">
<path transform="matrix(1,0,0,-1,0,396.84)" d="M.000014305 0H960V396.84H.000014305Z" clip-rule="evenodd"/>
</clipPath>
<clipPath id="clip_32">
<path transform="matrix(1,0,0,-1,0,396.84)" d="M-.000061035 .000061035H959.99996V396.84007H-.000061035Z" clip-rule="evenodd"/>
</clipPath>
<clipPath id="clip_33">
<path transform="matrix(1,0,0,-1,0,396.84)" d="M-.000061035 .000061035H959.99996V396.84007H-.000061035Z" clip-rule="evenodd"/>
</clipPath>
<clipPath id="clip_34">
<path transform="matrix(1,0,0,-1,0,396.84)" d="M.000014305 0H960V396.84H.000014305Z" clip-rule="evenodd"/>
</clipPath>
<clipPath id="clip_35">
<path transform="matrix(1,0,0,-1,0,396.84)" d="M.000014305 0H960V396.84H.000014305Z" clip-rule="evenodd"/>
</clipPath>
<clipPath id="clip_36">
<path transform="matrix(1,0,0,-1,0,396.84)" d="M0 .000061035H960V396.84007H0Z" clip-rule="evenodd"/>
</clipPath>
<clipPath id="clip_37">
<path transform="matrix(1,0,0,-1,0,396.84)" d="M0 .000061035H960V396.84007H0Z" clip-rule="evenodd"/>
</clipPath>
<clipPath id="clip_38">
<path transform="matrix(1,0,0,-1,0,396.84)" d="M.000014305 0H960V396.84H.000014305Z" clip-rule="evenodd"/>
</clipPath>
<clipPath id="clip_39">
<path transform="matrix(1,0,0,-1,0,396.84)" d="M.000014305 0H960V396.84H.000014305Z" clip-rule="evenodd"/>
</clipPath>
<clipPath id="clip_40">
<path transform="matrix(1,0,0,-1,0,396.84)" d="M.000014305 0H960V396.84H.000014305Z" clip-rule="evenodd"/>
</clipPath>
<clipPath id="clip_41">
<path transform="matrix(1,0,0,-1,0,396.84)" d="M.000014305 0H960V396.84H.000014305Z" clip-rule="evenodd"/>
</clipPath>
<clipPath id="clip_42">
<path transform="matrix(1,0,0,-1,0,396.84)" d="M.000061035 .00021362H960.00009V396.8402H.000061035Z" clip-rule="evenodd"/>
</clipPath>
<clipPath id="clip_43">
<path transform="matrix(1,0,0,-1,0,396.84)" d="M.000061035 .00018311H960.00009V396.84019H.000061035Z" clip-rule="evenodd"/>
</clipPath>
<clipPath id="clip_44">
<path transform="matrix(1,0,0,-1,0,396.84)" d="M-.000030518 .00021362H959.99996V396.8402H-.000030518Z" clip-rule="evenodd"/>
</clipPath>
<clipPath id="clip_45">
<path transform="matrix(1,0,0,-1,0,396.84)" d="M-.000061035 .00021362H959.99996V396.8402H-.000061035Z" clip-rule="evenodd"/>
</clipPath>
<clipPath id="clip_46">
<path transform="matrix(1,0,0,-1,0,396.84)" d="M-.000030518 .00021362H959.99996V396.8402H-.000030518Z" clip-rule="evenodd"/>
</clipPath>
<clipPath id="clip_47">
<path transform="matrix(1,0,0,-1,0,396.84)" d="M-.000061035 .00021362H959.99996V396.8402H-.000061035Z" clip-rule="evenodd"/>
</clipPath>
<clipPath id="clip_48">
<path transform="matrix(1,0,0,-1,0,396.84)" d="M-.000061035 .00021362H959.99996V396.8402H-.000061035Z" clip-rule="evenodd"/>
</clipPath>
<clipPath id="clip_49">
<path transform="matrix(1,0,0,-1,0,396.84)" d="M-.000061035 .00021362H959.99996V396.8402H-.000061035Z" clip-rule="evenodd"/>
</clipPath>
<clipPath id="clip_50">
<path transform="matrix(1,0,0,-1,0,396.84)" d="M0 .00021362H960V396.8402H0Z" clip-rule="evenodd"/>
</clipPath>
<clipPath id="clip_51">
<path transform="matrix(1,0,0,-1,0,396.84)" d="M0 .00021362H960V396.8402H0Z" clip-rule="evenodd"/>
</clipPath>
<clipPath id="clip_52">
<path transform="matrix(1,0,0,-1,0,396.84)" d="M0 .00021362H960V396.8402H0Z" clip-rule="evenodd"/>
</clipPath>
<clipPath id="clip_53">
<path transform="matrix(1,0,0,-1,0,396.84)" d="M0 .00012207H960V396.84013H0Z" clip-rule="evenodd"/>
</clipPath>
<clipPath id="clip_54">
<path transform="matrix(1,0,0,-1,0,396.84)" d="M.000061035 .00018311H960.00009V396.84019H.000061035Z" clip-rule="evenodd"/>
</clipPath>
<clipPath id="clip_55">
<path transform="matrix(1,0,0,-1,0,396.84)" d="M.000030518 .00021362H960.00009V396.8402H.000030518Z" clip-rule="evenodd"/>
</clipPath>
<clipPath id="clip_56">
<path transform="matrix(1,0,0,-1,0,396.84)" d="M-.000030518 .00018311H959.99996V396.84019H-.000030518Z" clip-rule="evenodd"/>
</clipPath>
<clipPath id="clip_57">
<path transform="matrix(1,0,0,-1,0,396.84)" d="M-.000030518 .00018311H959.99996V396.84019H-.000030518Z" clip-rule="evenodd"/>
</clipPath>
<clipPath id="clip_58">
<path transform="matrix(1,0,0,-1,0,396.84)" d="M0 .00018311H960V396.84019H0Z" clip-rule="evenodd"/>
</clipPath>
<clipPath id="clip_59">
<path transform="matrix(1,0,0,-1,0,396.84)" d="M0 .00018311H960V396.84019H0Z" clip-rule="evenodd"/>
</clipPath>
<clipPath id="clip_60">
<path transform="matrix(1,0,0,-1,0,396.84)" d="M0 .00018311H960V396.84019H0Z" clip-rule="evenodd"/>
</clipPath>
<clipPath id="clip_61">
<path transform="matrix(1,0,0,-1,0,396.84)" d="M-.000061035 .00018311H959.99996V396.84019H-.000061035Z" clip-rule="evenodd"/>
</clipPath>
<clipPath id="clip_62">
<path transform="matrix(1,0,0,-1,0,396.84)" d="M-.000030518 .000091553H959.99996V396.8401H-.000030518Z" clip-rule="evenodd"/>
</clipPath>
<clipPath id="clip_63">
<path transform="matrix(1,0,0,-1,0,396.84)" d="M-.000030518 .000091553H959.99996V396.8401H-.000030518Z" clip-rule="evenodd"/>
</clipPath>
<clipPath id="clip_64">
<path transform="matrix(1,0,0,-1,0,396.84)" d="M-.000061035 .000091553H959.99996V396.8401H-.000061035Z" clip-rule="evenodd"/>
</clipPath>
<clipPath id="clip_65">
<path transform="matrix(1,0,0,-1,0,396.84)" d="M-.000030518 .000091553H959.99996V396.8401H-.000030518Z" clip-rule="evenodd"/>
</clipPath>
<clipPath id="clip_66">
<path transform="matrix(1,0,0,-1,0,396.84)" d="M-.000061035 .000091553H959.99996V396.8401H-.000061035Z" clip-rule="evenodd"/>
</clipPath>
<clipPath id="clip_67">
<path transform="matrix(1,0,0,-1,0,396.84)" d="M.000061035 .00012207H960.00009V396.84013H.000061035Z" clip-rule="evenodd"/>
</clipPath>
<clipPath id="clip_68">
<path transform="matrix(1,0,0,-1,0,396.84)" d="M-.000061035 .00012207H959.99996V396.84013H-.000061035Z" clip-rule="evenodd"/>
</clipPath>
<clipPath id="clip_69">
<path transform="matrix(1,0,0,-1,0,396.84)" d="M-.000061035 .00012207H959.99996V396.84013H-.000061035Z" clip-rule="evenodd"/>
</clipPath>
<clipPath id="clip_70">
<path transform="matrix(1,0,0,-1,0,396.84)" d="M-.000061035 .000091553H959.99996V396.8401H-.000061035Z" clip-rule="evenodd"/>
</clipPath>
<clipPath id="clip_71">
<path transform="matrix(1,0,0,-1,0,396.84)" d="M0 .000091553H960V396.8401H0Z" clip-rule="evenodd"/>
</clipPath>
<clipPath id="clip_72">
<path transform="matrix(1,0,0,-1,0,396.84)" d="M.000061035 .000091553H960.00009V396.8401H.000061035Z" clip-rule="evenodd"/>
</clipPath>
</defs>
<g>
<g clip-path="url(#clip_1)">
<path transform="matrix(1,0,0,-1,0,396.84)" d="M0-.035004H960V396.845H0Z" fill="#ffffff" fill-rule="evenodd"/>
</g>
<g clip-path="url(#clip_2)">
<path transform="matrix(1,0,0,-1,0,396.84)" d="M149.03 352.96C149.03 354.86 150.58 356.41 152.48 356.41H907.02C908.92 356.41 910.47 354.86 910.47 352.96V339.16C910.47 337.25 908.92 335.71 907.02 335.71H152.48C150.58 335.71 149.03 337.25 149.03 339.16Z" fill="#d094ef" fill-rule="evenodd"/>
</g>
<g clip-path="url(#clip_3)">
<path transform="matrix(1,0,0,-1,0,396.84)" stroke-width="1" stroke-linecap="butt" stroke-miterlimit="10" stroke-linejoin="miter" fill="none" stroke="#d094ef" d="M149.03 352.96C149.03 354.86 150.58 356.41 152.48 356.41H907.02C908.92 356.41 910.47 354.86 910.47 352.96V339.16C910.47 337.25 908.92 335.71 907.02 335.71H152.48C150.58 335.71 149.03 337.25 149.03 339.16Z"/>
</g>
<g clip-path="url(#clip_4)">
<path transform="matrix(1,0,0,-1,0,396.84)" stroke-width="2.25" stroke-linecap="butt" stroke-dasharray="18,6.75" stroke-miterlimit="10" stroke-linejoin="miter" fill="none" stroke="#d094ef" d="M149.52 370.6V350.56"/>
</g>
<g clip-path="url(#clip_5)">
<text fill="#d094ef" xml:space="preserve" transform="matrix(1 0 -0 1 0 396.84)" font-size="12" font-family="NanumSquare"><tspan y="-378.55" x="614.16 624.95999 631.19998 637.43997 643.55996 646.19998">Week 1</tspan></text>
</g>
<g clip-path="url(#clip_6)">
<text fill="#d094ef" xml:space="preserve" transform="matrix(1 0 -0 1 0 396.84)" font-size="12" font-family="NanumSquare"><tspan y="-378.55" x="117.38 124.22 131.06 137.9">2026</tspan></text>
</g>
<g clip-path="url(#clip_7)">
<text fill="#d094ef" xml:space="preserve" transform="matrix(1 0 -0 1 0 396.84)" font-size="12" font-family="NanumSquare"><tspan y="-378.55" x="144.74">-</tspan></text>
</g>
<g clip-path="url(#clip_8)">
<text fill="#d094ef" xml:space="preserve" transform="matrix(1 0 -0 1 0 396.84)" font-size="12" font-family="NanumSquare"><tspan y="-378.55" x="149.42 156.38">01</tspan></text>
</g>
<g clip-path="url(#clip_9)">
<text fill="#d094ef" xml:space="preserve" transform="matrix(1 0 -0 1 0 396.84)" font-size="12" font-family="NanumSquare"><tspan y="-378.55" x="163.34">-</tspan></text>
</g>
<g clip-path="url(#clip_10)">
<text fill="#d094ef" xml:space="preserve" transform="matrix(1 0 -0 1 0 396.84)" font-size="12" font-family="NanumSquare"><tspan y="-378.55" x="168.02 174.98001">29</tspan></text>
</g>
<g clip-path="url(#clip_11)">
<text fill="#d094ef" xml:space="preserve" transform="matrix(1 0 -0 1 0 396.84)" font-size="12" font-family="NanumSquare"><tspan y="-378.55" x="875.33 882.17007 889.0101 895.8501">2026</tspan></text>
</g>
<g clip-path="url(#clip_12)">
<text fill="#d094ef" xml:space="preserve" transform="matrix(1 0 -0 1 0 396.84)" font-size="12" font-family="NanumSquare"><tspan y="-378.55" x="902.69">-</tspan></text>
</g>
<g clip-path="url(#clip_13)">
<text fill="#d094ef" xml:space="preserve" transform="matrix(1 0 -0 1 0 396.84)" font-size="12" font-family="NanumSquare"><tspan y="-378.55" x="907.37 914.354">02</tspan></text>
</g>
<g clip-path="url(#clip_14)">
<text fill="#d094ef" xml:space="preserve" transform="matrix(1 0 -0 1 0 396.84)" font-size="12" font-family="NanumSquare"><tspan y="-378.55" x="921.31">-</tspan></text>
</g>
<g clip-path="url(#clip_15)">
<text fill="#d094ef" xml:space="preserve" transform="matrix(1 0 -0 1 0 396.84)" font-size="12" font-family="NanumSquare"><tspan y="-378.55" x="925.99 932.95">09</tspan></text>
</g>
<g clip-path="url(#clip_16)">
<path transform="matrix(1,0,0,-1,0,396.84)" d="M149.52 306.05C149.52 308.66 151.64 310.78 154.25 310.78H351.97C354.58 310.78 356.7 308.66 356.7 306.05V287.16C356.7 284.55 354.58 282.43 351.97 282.43H154.25C151.64 282.43 149.52 284.55 149.52 287.16Z" fill="#0055fa" fill-rule="evenodd"/>
</g>
<g clip-path="url(#clip_17)">
<path transform="matrix(1,0,0,-1,0,396.84)" stroke-width="1" stroke-linecap="butt" stroke-miterlimit="10" stroke-linejoin="miter" fill="none" stroke="#0055fa" d="M149.52 306.05C149.52 308.66 151.64 310.78 154.25 310.78H351.97C354.58 310.78 356.7 308.66 356.7 306.05V287.16C356.7 284.55 354.58 282.43 351.97 282.43H154.25C151.64 282.43 149.52 284.55 149.52 287.16Z"/>
</g>
<g clip-path="url(#clip_18)">
<text fill="#0055fa" xml:space="preserve" transform="matrix(1 0 -0 1 0 396.84)" font-size="14.04" font-family="NanumSquare"><tspan y="-291.41" x="33.552 46.0324 58.5128">&#xb370;&#xc774;&#xd130;</tspan></text>
<text fill="#0055fa" xml:space="preserve" transform="matrix(1 0 -0 1 0 396.84)" font-size="14.04" font-family="NanumSquare"><tspan y="-291.41" x="33.552 46.0324 58.5128">&#xb370;&#xc774;&#xd130;</tspan></text>
</g>
<g clip-path="url(#clip_19)">
<text fill="#0055fa" xml:space="preserve" transform="matrix(1 0 -0 1 0 396.84)" font-size="14.04" font-family="NanumSquare"><tspan y="-291.41" x="74.112 86.5924 99.0728">&#xc804;&#xcc98;&#xb9ac;</tspan></text>
<text fill="#0055fa" xml:space="preserve" transform="matrix(1 0 -0 1 0 396.84)" font-size="14.04" font-family="NanumSquare"><tspan y="-291.41" x="74.112 86.5924 99.0728">&#xc804;&#xcc98;&#xb9ac;</tspan></text>
</g>
<g clip-path="url(#clip_20)">
<path transform="matrix(1,0,0,-1,0,396.84)" d="M287.48 261.08C287.48 263.69 289.59 265.81 292.2 265.81H767.3C769.91 265.81 772.03 263.69 772.03 261.08V242.19C772.03 239.58 769.91 237.46 767.3 237.46H292.2C289.59 237.46 287.48 239.58 287.48 242.19Z" fill="#492ecf" fill-rule="evenodd"/>
</g>
<g clip-path="url(#clip_21)">
<path transform="matrix(1,0,0,-1,0,396.84)" stroke-width="1" stroke-linecap="butt" stroke-miterlimit="10" stroke-linejoin="miter" fill="none" stroke="#492ecf" d="M287.48 261.08C287.48 263.69 289.59 265.81 292.2 265.81H767.3C769.91 265.81 772.03 263.69 772.03 261.08V242.19C772.03 239.58 769.91 237.46 767.3 237.46H292.2C289.59 237.46 287.48 239.58 287.48 242.19Z"/>
</g>
<g clip-path="url(#clip_22)">
<text fill="#492ecf" xml:space="preserve" transform="matrix(1 0 -0 1 0 396.84)" font-size="14.064" font-family="NanumSquare"><tspan y="-247.94" x="46.008 58.48824">&#xbaa8;&#xb378;</tspan></text>
<text fill="#492ecf" xml:space="preserve" transform="matrix(1 0 -0 1 0 396.84)" font-size="14.064" font-family="NanumSquare"><tspan y="-247.94" x="46.008 58.48824">&#xbaa8;&#xb378;</tspan></text>
</g>
<g clip-path="url(#clip_23)">
<text fill="#492ecf" xml:space="preserve" transform="matrix(1 0 -0 1 0 396.84)" font-size="14.064" font-family="NanumSquare"><tspan y="-247.94" x="74.088 86.56824">&#xd559;&#xc2b5;</tspan></text>
<text fill="#492ecf" xml:space="preserve" transform="matrix(1 0 -0 1 0 396.84)" font-size="14.064" font-family="NanumSquare"><tspan y="-247.94" x="74.088 86.56824">&#xd559;&#xc2b5;</tspan></text>
</g>
<g clip-path="url(#clip_24)">
<path transform="matrix(1,0,0,-1,0,396.84)" d="M218.25 216.34C218.25 218.95 220.37 221.06 222.98 221.06H421.19C423.8 221.06 425.92 218.95 425.92 216.34V197.44C425.92 194.83 423.8 192.72 421.19 192.72H222.98C220.37 192.72 218.25 194.83 218.25 197.44Z" fill="#b7b7b7" fill-rule="evenodd"/>
</g>
<g clip-path="url(#clip_25)">
<path transform="matrix(1,0,0,-1,0,396.84)" stroke-width="1" stroke-linecap="butt" stroke-miterlimit="10" stroke-linejoin="miter" fill="none" stroke="#b7b7b7" d="M218.25 216.34C218.25 218.95 220.37 221.06 222.98 221.06H421.19C423.8 221.06 425.92 218.95 425.92 216.34V197.44C425.92 194.83 423.8 192.72 421.19 192.72H222.98C220.37 192.72 218.25 194.83 218.25 197.44Z"/>
</g>
<g clip-path="url(#clip_26)">
<text fill="#b7b7b7" xml:space="preserve" transform="matrix(1 0 -0 1 0 396.84)" font-size="14.04" font-family="NanumSquare"><tspan y="-203.26" x="59.328 67.9626 76.72356">RAG</tspan></text>
<text fill="#b7b7b7" xml:space="preserve" transform="matrix(1 0 -0 1 0 396.84)" font-size="14.04" font-family="NanumSquare"><tspan y="-203.26" x="59.328 67.9626 76.72356">RAG</tspan></text>
</g>
<g clip-path="url(#clip_27)">
<path transform="matrix(1,0,0,-1,0,396.84)" d="M425.92 168.32C425.92 170.93 428.03 173.05 430.64 173.05H698.08C700.69 173.05 702.8 170.93 702.8 168.32V149.42C702.8 146.81 700.69 144.7 698.08 144.7H430.64C428.03 144.7 425.92 146.81 425.92 149.42Z" fill="#bdcfe3" fill-rule="evenodd"/>
</g>
<g clip-path="url(#clip_28)">
<path transform="matrix(1,0,0,-1,0,396.84)" stroke-width="1" stroke-linecap="butt" stroke-miterlimit="10" stroke-linejoin="miter" fill="none" stroke="#d0dbff" d="M425.92 168.32C425.92 170.93 428.03 173.05 430.64 173.05H698.08C700.69 173.05 702.8 170.93 702.8 168.32V149.42C702.8 146.81 700.69 144.7 698.08 144.7H430.64C428.03 144.7 425.92 146.81 425.92 149.42Z"/>
</g>
<g clip-path="url(#clip_29)">
<text fill="#d0dbff" xml:space="preserve" transform="matrix(1 0 -0 1 0 396.84)" font-size="14.064" font-family="NanumSquare"><tspan y="-154.06" x="31.92 44.42424">&#xc2e0;&#xacbd;</tspan></text>
<text fill="#d0dbff" xml:space="preserve" transform="matrix(1 0 -0 1 0 396.84)" font-size="14.064" font-family="NanumSquare"><tspan y="-154.06" x="31.92 44.42424">&#xc2e0;&#xacbd;</tspan></text>
</g>
<g clip-path="url(#clip_30)">
<text fill="#d0dbff" xml:space="preserve" transform="matrix(1 0 -0 1 0 396.84)" font-size="14.064" font-family="NanumSquare"><tspan y="-154.06" x="60.024 72.50424">&#xcd94;&#xc815;</tspan></text>
<text fill="#d0dbff" xml:space="preserve" transform="matrix(1 0 -0 1 0 396.84)" font-size="14.064" font-family="NanumSquare"><tspan y="-154.06" x="60.024 72.50424">&#xcd94;&#xc815;</tspan></text>
</g>
<g clip-path="url(#clip_31)">
<text fill="#d0dbff" xml:space="preserve" transform="matrix(1 0 -0 1 0 396.84)" font-size="14.064" font-family="NanumSquare"><tspan y="-154.06" x="88.104 100.584239">&#xad6c;&#xcd95;</tspan></text>
<text fill="#d0dbff" xml:space="preserve" transform="matrix(1 0 -0 1 0 396.84)" font-size="14.064" font-family="NanumSquare"><tspan y="-154.06" x="88.104 100.584239">&#xad6c;&#xcd95;</tspan></text>
</g>
<g clip-path="url(#clip_32)">
<path transform="matrix(1,0,0,-1,0,396.84)" d="M564.09 116.51C564.09 119.12 566.2 121.24 568.81 121.24H835.25C837.86 121.24 839.97 119.12 839.97 116.51V97.616C839.97 95.007 837.86 92.891 835.25 92.891H568.81C566.2 92.891 564.09 95.007 564.09 97.616Z" fill="#415086" fill-rule="evenodd"/>
</g>
<g clip-path="url(#clip_33)">
<path transform="matrix(1,0,0,-1,0,396.84)" stroke-width="1" stroke-linecap="butt" stroke-miterlimit="10" stroke-linejoin="miter" fill="none" stroke="#415086" d="M564.09 116.51C564.09 119.12 566.2 121.24 568.81 121.24H835.25C837.86 121.24 839.97 119.12 839.97 116.51V97.616C839.97 95.007 837.86 92.891 835.25 92.891H568.81C566.2 92.891 564.09 95.007 564.09 97.616Z"/>
</g>
<g clip-path="url(#clip_34)">
<text fill="#415086" xml:space="preserve" transform="matrix(1 0 -0 1 0 396.84)" font-size="14.04" font-family="NanumSquare"><tspan y="-102.65" x="27.312 39.7924">&#xcd94;&#xb860;</tspan></text>
<text fill="#415086" xml:space="preserve" transform="matrix(1 0 -0 1 0 396.84)" font-size="14.04" font-family="NanumSquare"><tspan y="-102.65" x="27.312 39.7924">&#xcd94;&#xb860;</tspan></text>
</g>
<g clip-path="url(#clip_35)">
<text fill="#415086" xml:space="preserve" transform="matrix(1 0 -0 1 0 396.84)" font-size="14.04" font-family="NanumSquare"><tspan y="-102.65" x="55.392 67.8724 80.3528 92.8332 105.3136">&#xd30c;&#xc774;&#xd504;&#xb77c;&#xc778;</tspan></text>
<text fill="#415086" xml:space="preserve" transform="matrix(1 0 -0 1 0 396.84)" font-size="14.04" font-family="NanumSquare"><tspan y="-102.65" x="55.392 67.8724 80.3528 92.8332 105.3136">&#xd30c;&#xc774;&#xd504;&#xb77c;&#xc778;</tspan></text>
</g>
<g clip-path="url(#clip_36)">
<path transform="matrix(1,0,0,-1,0,396.84)" d="M633.58 61.897C633.58 64.506 635.7 66.621 638.31 66.621H904.74C907.35 66.621 909.47 64.506 909.47 61.897V42.999C909.47 40.39 907.35 38.275 904.74 38.275H638.31C635.7 38.275 633.58 40.39 633.58 42.999Z" fill="#c00000" fill-rule="evenodd"/>
</g>
<g clip-path="url(#clip_37)">
<path transform="matrix(1,0,0,-1,0,396.84)" stroke-width="1" stroke-linecap="butt" stroke-miterlimit="10" stroke-linejoin="miter" fill="none" stroke="#c00000" d="M633.58 61.897C633.58 64.506 635.7 66.621 638.31 66.621H904.74C907.35 66.621 909.47 64.506 909.47 61.897V42.999C909.47 40.39 907.35 38.275 904.74 38.275H638.31C635.7 38.275 633.58 40.39 633.58 42.999Z"/>
</g>
<g clip-path="url(#clip_38)">
<text fill="#c00000" xml:space="preserve" transform="matrix(1 0 -0 1 0 396.84)" font-size="14.04" font-family="NanumSquare"><tspan y="-47.592" x="17.976 30.4564 42.9368">&#xc2dc;&#xac01;&#xd654;</tspan></text>
<text fill="#c00000" xml:space="preserve" transform="matrix(1 0 -0 1 0 396.84)" font-size="14.04" font-family="NanumSquare"><tspan y="-47.592" x="17.976 30.4564 42.9368">&#xc2dc;&#xac01;&#xd654;</tspan></text>
</g>
<g clip-path="url(#clip_39)">
<text fill="#c00000" xml:space="preserve" transform="matrix(1 0 -0 1 0 396.84)" font-size="14.04" font-family="NanumSquare"><tspan y="-47.592" x="58.56">&#xbc0f;</tspan></text>
<text fill="#c00000" xml:space="preserve" transform="matrix(1 0 -0 1 0 396.84)" font-size="14.04" font-family="NanumSquare"><tspan y="-47.592" x="58.56">&#xbc0f;</tspan></text>
</g>
<g clip-path="url(#clip_40)">
<text fill="#c00000" xml:space="preserve" transform="matrix(1 0 -0 1 0 396.84)" font-size="14.04" font-family="NanumSquare"><tspan y="-47.592" x="74.16 86.6404">&#xc11c;&#xbc84;</tspan></text>
<text fill="#c00000" xml:space="preserve" transform="matrix(1 0 -0 1 0 396.84)" font-size="14.04" font-family="NanumSquare"><tspan y="-47.592" x="74.16 86.6404">&#xc11c;&#xbc84;</tspan></text>
</g>
<g clip-path="url(#clip_41)">
<text fill="#c00000" xml:space="preserve" transform="matrix(1 0 -0 1 0 396.84)" font-size="14.04" font-family="NanumSquare"><tspan y="-47.592" x="102.24 114.7204">&#xad6c;&#xcd95;</tspan></text>
<text fill="#c00000" xml:space="preserve" transform="matrix(1 0 -0 1 0 396.84)" font-size="14.04" font-family="NanumSquare"><tspan y="-47.592" x="102.24 114.7204">&#xad6c;&#xcd95;</tspan></text>
</g>
<g clip-path="url(#clip_42)">
<path transform="matrix(1,0,0,-1,0,396.84)" stroke-width="2.25" stroke-linecap="butt" stroke-dasharray="18,6.75" stroke-miterlimit="10" stroke-linejoin="miter" fill="none" stroke="#d094ef" d="M218.71 370.6V350.56"/>
</g>
<g clip-path="url(#clip_43)">
<path transform="matrix(1,0,0,-1,0,396.84)" stroke-width="2.25" stroke-linecap="butt" stroke-dasharray="18,6.75" stroke-miterlimit="10" stroke-linejoin="miter" fill="none" stroke="#ffffff" d="M287.78 306.29V286.24"/>
</g>
<g clip-path="url(#clip_44)">
<path transform="matrix(1,0,0,-1,0,396.84)" stroke-width="2.25" stroke-linecap="butt" stroke-dasharray="18,6.75" stroke-miterlimit="10" stroke-linejoin="miter" fill="none" stroke="#d094ef" d="M356.86 370.6V350.56"/>
</g>
<g clip-path="url(#clip_45)">
<path transform="matrix(1,0,0,-1,0,396.84)" stroke-width="2.25" stroke-linecap="butt" stroke-dasharray="18,6.75" stroke-miterlimit="10" stroke-linejoin="miter" fill="none" stroke="#d094ef" d="M425.94 370.6V350.56"/>
</g>
<g clip-path="url(#clip_46)">
<path transform="matrix(1,0,0,-1,0,396.84)" stroke-width="2.25" stroke-linecap="butt" stroke-dasharray="18,6.75" stroke-miterlimit="10" stroke-linejoin="miter" fill="none" stroke="#d094ef" d="M495.01 370.6V350.56"/>
</g>
<g clip-path="url(#clip_47)">
<path transform="matrix(1,0,0,-1,0,396.84)" stroke-width="2.25" stroke-linecap="butt" stroke-dasharray="18,6.75" stroke-miterlimit="10" stroke-linejoin="miter" fill="none" stroke="#d094ef" d="M564.09 370.6V350.56"/>
</g>
<g clip-path="url(#clip_48)">
<path transform="matrix(1,0,0,-1,0,396.84)" stroke-width="2.25" stroke-linecap="butt" stroke-dasharray="18,6.75" stroke-miterlimit="10" stroke-linejoin="miter" fill="none" stroke="#d094ef" d="M633.16 370.6V350.56"/>
</g>
<g clip-path="url(#clip_49)">
<path transform="matrix(1,0,0,-1,0,396.84)" stroke-width="2.25" stroke-linecap="butt" stroke-dasharray="18,6.75" stroke-miterlimit="10" stroke-linejoin="miter" fill="none" stroke="#d094ef" d="M702.24 370.6V350.56"/>
</g>
<g clip-path="url(#clip_50)">
<path transform="matrix(1,0,0,-1,0,396.84)" stroke-width="2.25" stroke-linecap="butt" stroke-dasharray="18,6.75" stroke-miterlimit="10" stroke-linejoin="miter" fill="none" stroke="#d094ef" d="M771.32 370.6V350.56"/>
</g>
<g clip-path="url(#clip_51)">
<path transform="matrix(1,0,0,-1,0,396.84)" stroke-width="2.25" stroke-linecap="butt" stroke-dasharray="18,6.75" stroke-miterlimit="10" stroke-linejoin="miter" fill="none" stroke="#d094ef" d="M840.39 370.6V350.56"/>
</g>
<g clip-path="url(#clip_52)">
<path transform="matrix(1,0,0,-1,0,396.84)" stroke-width="2.25" stroke-linecap="butt" stroke-dasharray="18,6.75" stroke-miterlimit="10" stroke-linejoin="miter" fill="none" stroke="#d094ef" d="M909.47 370.6V350.56"/>
</g>
<g clip-path="url(#clip_53)">
<path transform="matrix(1,0,0,-1,0,396.84)" stroke-width="2.25" stroke-linecap="butt" stroke-miterlimit="10" stroke-linejoin="miter" fill="none" stroke="#b7b7b7" d="M142.14 316.5C142.14 322.8 147.24 327.9 153.54 327.9H903.17C909.46 327.9 914.57 322.8 914.57 316.5V21.764C914.57 15.466 909.46 10.361 903.17 10.361H153.54C147.24 10.361 142.14 15.466 142.14 21.764Z"/>
</g>
<g clip-path="url(#clip_54)">
<path transform="matrix(1,0,0,-1,0,396.84)" stroke-width="2.25" stroke-linecap="butt" stroke-dasharray="18,6.75" stroke-miterlimit="10" stroke-linejoin="miter" fill="none" stroke="#ffffff" d="M218.71 306.29V286.24"/>
</g>
<g clip-path="url(#clip_55)">
<path transform="matrix(1,0,0,-1,0,396.84)" stroke-width="2.25" stroke-linecap="butt" stroke-dasharray="18,6.75" stroke-miterlimit="10" stroke-linejoin="miter" fill="none" stroke="#d094ef" d="M288.99 370.6V350.56"/>
</g>
<g clip-path="url(#clip_56)">
<path transform="matrix(1,0,0,-1,0,396.84)" stroke-width="2.25" stroke-linecap="butt" stroke-dasharray="18,6.75" stroke-miterlimit="10" stroke-linejoin="miter" fill="none" stroke="#ffffff" d="M426.23 260.63V240.58"/>
</g>
<g clip-path="url(#clip_57)">
<path transform="matrix(1,0,0,-1,0,396.84)" stroke-width="2.25" stroke-linecap="butt" stroke-dasharray="18,6.75" stroke-miterlimit="10" stroke-linejoin="miter" fill="none" stroke="#ffffff" d="M357.39 260.63V240.58"/>
</g>
<g clip-path="url(#clip_58)">
<path transform="matrix(1,0,0,-1,0,396.84)" stroke-width="2.25" stroke-linecap="butt" stroke-dasharray="18,6.75" stroke-miterlimit="10" stroke-linejoin="miter" fill="none" stroke="#ffffff" d="M563.9 260.63V240.58"/>
</g>
<g clip-path="url(#clip_59)">
<path transform="matrix(1,0,0,-1,0,396.84)" stroke-width="2.25" stroke-linecap="butt" stroke-dasharray="18,6.75" stroke-miterlimit="10" stroke-linejoin="miter" fill="none" stroke="#ffffff" d="M495.07 260.63V240.58"/>
</g>
<g clip-path="url(#clip_60)">
<path transform="matrix(1,0,0,-1,0,396.84)" stroke-width="2.25" stroke-linecap="butt" stroke-dasharray="18,6.75" stroke-miterlimit="10" stroke-linejoin="miter" fill="none" stroke="#ffffff" d="M701.58 260.63V240.58"/>
</g>
<g clip-path="url(#clip_61)">
<path transform="matrix(1,0,0,-1,0,396.84)" stroke-width="2.25" stroke-linecap="butt" stroke-dasharray="18,6.75" stroke-miterlimit="10" stroke-linejoin="miter" fill="none" stroke="#ffffff" d="M632.74 260.63V240.58"/>
</g>
<g clip-path="url(#clip_62)">
<path transform="matrix(1,0,0,-1,0,396.84)" stroke-width="2.25" stroke-linecap="butt" stroke-dasharray="18,6.75" stroke-miterlimit="10" stroke-linejoin="miter" fill="none" stroke="#ffffff" d="M356.7 215.71V195.67"/>
</g>
<g clip-path="url(#clip_63)">
<path transform="matrix(1,0,0,-1,0,396.84)" stroke-width="2.25" stroke-linecap="butt" stroke-dasharray="18,6.75" stroke-miterlimit="10" stroke-linejoin="miter" fill="none" stroke="#ffffff" d="M287.62 215.71V195.67"/>
</g>
<g clip-path="url(#clip_64)">
<path transform="matrix(1,0,0,-1,0,396.84)" stroke-width="2.25" stroke-linecap="butt" stroke-dasharray="18,6.75" stroke-miterlimit="10" stroke-linejoin="miter" fill="none" stroke="#ffffff" d="M563.76 168.28V148.24"/>
</g>
<g clip-path="url(#clip_65)">
<path transform="matrix(1,0,0,-1,0,396.84)" stroke-width="2.25" stroke-linecap="butt" stroke-dasharray="18,6.75" stroke-miterlimit="10" stroke-linejoin="miter" fill="none" stroke="#ffffff" d="M495.01 168.28V148.24"/>
</g>
<g clip-path="url(#clip_66)">
<path transform="matrix(1,0,0,-1,0,396.84)" stroke-width="2.25" stroke-linecap="butt" stroke-dasharray="18,6.75" stroke-miterlimit="10" stroke-linejoin="miter" fill="none" stroke="#ffffff" d="M632.5 168.28V148.24"/>
</g>
<g clip-path="url(#clip_67)">
<path transform="matrix(1,0,0,-1,0,396.84)" stroke-width="2.25" stroke-linecap="butt" stroke-dasharray="18,6.75" stroke-miterlimit="10" stroke-linejoin="miter" fill="none" stroke="#ffffff" d="M701.25 116.47V96.427"/>
</g>
<g clip-path="url(#clip_68)">
<path transform="matrix(1,0,0,-1,0,396.84)" stroke-width="2.25" stroke-linecap="butt" stroke-dasharray="18,6.75" stroke-miterlimit="10" stroke-linejoin="miter" fill="none" stroke="#ffffff" d="M632.5 116.47V96.427"/>
</g>
<g clip-path="url(#clip_69)">
<path transform="matrix(1,0,0,-1,0,396.84)" stroke-width="2.25" stroke-linecap="butt" stroke-dasharray="18,6.75" stroke-miterlimit="10" stroke-linejoin="miter" fill="none" stroke="#ffffff" d="M769.99 116.47V96.427"/>
</g>
<g clip-path="url(#clip_70)">
<path transform="matrix(1,0,0,-1,0,396.84)" stroke-width="2.25" stroke-linecap="butt" stroke-dasharray="18,6.75" stroke-miterlimit="10" stroke-linejoin="miter" fill="none" stroke="#ffffff" d="M771.23 61.285V41.241"/>
</g>
<g clip-path="url(#clip_71)">
<path transform="matrix(1,0,0,-1,0,396.84)" stroke-width="2.25" stroke-linecap="butt" stroke-dasharray="18,6.75" stroke-miterlimit="10" stroke-linejoin="miter" fill="none" stroke="#ffffff" d="M702.48 61.285V41.241"/>
</g>
<g clip-path="url(#clip_72)">
<path transform="matrix(1,0,0,-1,0,396.84)" stroke-width="2.25" stroke-linecap="butt" stroke-dasharray="18,6.75" stroke-miterlimit="10" stroke-linejoin="miter" fill="none" stroke="#ffffff" d="M839.97 61.285V41.241"/>
</g>
</g>
</svg>
